<svg width="1350" height="150" viewBox="0 0 1350 150" fill="none" xmlns="http://www.w3.org/2000/svg">
<rect y="90" width="30" height="30" fill="black"/>
<rect x="30" y="90" width="30" height="30" fill="black"/>
<rect x="60" y="90" width="30" height="30" fill="black"/>
<rect x="120" y="90" width="30" height="30" fill="black"/>
<rect x="120" y="120" width="30" height="30" fill="black"/>
<rect x="120" y="60" width="30" height="30" fill="black"/>
<rect x="120" y="30" width="30" height="30" fill="black"/>
<rect x="150" y="30" width="30" height="30" fill="black"/>
<rect x="180" y="30" width="30" height="30" fill="black"/>
<rect x="270" y="90" width="30" height="30" fill="black"/>
<rect x="240" y="90" width="30" height="30" fill="black"/>
<rect x="240" y="60" width="30" height="30" fill="black"/>
<rect x="240" y="30" width="30" height="30" fill="black"/>
<rect x="270" y="30" width="30" height="30" fill="black"/>
<rect x="270" y="75" width="30" height="30" fill="black"/>
<rect x="300" y="30" width="30" height="30" fill="black"/>
<rect x="300" y="45" width="30" height="30" fill="black"/>
<rect x="300" y="90" width="30" height="30" fill="black"/>
<rect x="570" y="90" width="30" height="30" fill="#FFA116"/>
<rect x="540" y="90" width="30" height="30" fill="#FFA116"/>
<rect x="540" y="60" width="30" height="30" fill="#FFA116"/>
<rect x="540" y="30" width="30" height="30" fill="#FFA116"/>
<rect x="570" y="30" width="30" height="30" fill="#FFA116"/>
<rect x="570" y="75" width="30" height="30" fill="#FFA116"/>
<rect x="600" y="30" width="30" height="30" fill="#FFA116"/>
<rect x="600" y="45" width="30" height="30" fill="#FFA116"/>
<rect x="600" y="90" width="30" height="30" fill="#FFA116"/>
<rect x="570" y="90" width="30" height="30" fill="#FFA116"/>
<rect x="540" y="90" width="30" height="30" fill="#FFA116"/>
<rect x="540" y="60" width="30" height="30" fill="#FFA116"/>
<rect x="540" y="30" width="30" height="30" fill="#FFA116"/>
<rect x="570" y="30" width="30" height="30" fill="#FFA116"/>
<rect x="570" y="75" width="30" height="30" fill="#FFA116"/>
<rect x="600" y="30" width="30" height="30" fill="#FFA116"/>
<rect x="600" y="45" width="30" height="30" fill="#FFA116"/>
<rect x="600" y="90" width="30" height="30" fill="#FFA116"/>
<rect x="1290" y="90" width="30" height="30" fill="black"/>
<rect x="1260" y="90" width="30" height="30" fill="black"/>
<rect x="1260" y="60" width="30" height="30" fill="black"/>
<rect x="1260" y="30" width="30" height="30" fill="black"/>
<rect x="1290" y="30" width="30" height="30" fill="black"/>
<rect x="1290" y="75" width="30" height="30" fill="black"/>
<rect x="1320" y="30" width="30" height="30" fill="black"/>
<rect x="1320" y="45" width="30" height="30" fill="black"/>
<rect x="1320" y="90" width="30" height="30" fill="black"/>
<rect x="1290" y="90" width="30" height="30" fill="black"/>
<rect x="1260" y="90" width="30" height="30" fill="black"/>
<rect x="1260" y="60" width="30" height="30" fill="black"/>
<rect x="1260" y="30" width="30" height="30" fill="black"/>
<rect x="1290" y="30" width="30" height="30" fill="black"/>
<rect x="1290" y="75" width="30" height="30" fill="black"/>
<rect x="1320" y="30" width="30" height="30" fill="black"/>
<rect x="1320" y="45" width="30" height="30" fill="black"/>
<rect x="1320" y="90" width="30" height="30" fill="black"/>
<rect x="690" y="90" width="30" height="30" fill="#FFA116"/>
<rect x="660" y="90" width="30" height="30" fill="#FFA116"/>
<rect x="660" y="60" width="30" height="30" fill="#FFA116"/>
<rect x="660" y="30" width="30" height="30" fill="#FFA116"/>
<rect x="690" y="30" width="30" height="30" fill="#FFA116"/>
<rect x="690" y="75" width="30" height="30" fill="#FFA116"/>
<rect x="720" y="30" width="30" height="30" fill="#FFA116"/>
<rect x="720" y="45" width="30" height="30" fill="#FFA116"/>
<rect x="720" y="90" width="30" height="30" fill="#FFA116"/>
<rect x="690" y="90" width="30" height="30" fill="#FFA116"/>
<rect x="660" y="90" width="30" height="30" fill="#FFA116"/>
<rect x="810" y="90" width="30" height="30" fill="#FFA116"/>
<rect x="840" y="90" width="30" height="30" fill="#FFA116"/>
<rect x="810" y="60" width="30" height="30" fill="#FFA116"/>
<rect x="810" y="60" width="30" height="30" fill="#FFA116"/>
<rect x="810" y="90" width="30" height="30" fill="#FFA116"/>
<rect x="840" y="90" width="30" height="30" fill="#FFA116"/>
<rect x="810" y="60" width="30" height="30" fill="#FFA116"/>
<rect x="810" y="60" width="30" height="30" fill="#FFA116"/>
<rect x="810" y="30" width="30" height="30" fill="#FFA116"/>
<rect x="780" y="30" width="30" height="30" fill="#FFA116"/>
<rect x="930" y="30" width="30" height="30" fill="black"/>
<rect x="900" y="30" width="30" height="30" fill="black"/>
<rect x="900" y="60" width="30" height="30" fill="black"/>
<rect x="900" y="90" width="30" height="30" fill="black"/>
<rect x="930" y="90" width="30" height="30" fill="black"/>
<rect x="840" y="30" width="30" height="30" fill="#FFA116"/>
<rect x="810" width="30" height="30" fill="#FFA116"/>
<rect x="660" y="60" width="30" height="30" fill="#FFA116"/>
<rect x="660" y="30" width="30" height="30" fill="#FFA116"/>
<rect x="690" y="30" width="30" height="30" fill="#FFA116"/>
<rect x="690" y="75" width="30" height="30" fill="#FFA116"/>
<rect x="720" y="30" width="30" height="30" fill="#FFA116"/>
<rect x="720" y="45" width="30" height="30" fill="#FFA116"/>
<rect x="720" y="90" width="30" height="30" fill="#FFA116"/>
<rect x="180" y="60" width="30" height="30" fill="black"/>
<rect x="360" y="90" width="30" height="30" fill="black"/>
<rect x="360" y="60" width="30" height="30" fill="black"/>
<rect x="360" y="30" width="30" height="30" fill="black"/>
<rect x="390" y="30" width="30" height="30" fill="black"/>
<rect x="420" y="60" width="30" height="30" fill="black"/>
<rect x="420" y="86" width="30" height="30" fill="black"/>
<rect x="480" y="90" width="30" height="30" fill="#FFA116"/>
<rect x="480" y="60" width="30" height="30" fill="#FFA116"/>
<rect x="480" y="30" width="30" height="30" fill="#FFA116"/>
<rect x="480" width="30" height="30" fill="#FFA116"/>
<rect x="150" y="90" width="30" height="30" fill="black"/>
<rect x="180" y="90" width="30" height="30" fill="black"/>
<rect x="60" y="60" width="30" height="30" fill="black"/>
<rect x="60" y="30" width="30" height="30" fill="black"/>
<rect x="30" y="30" width="30" height="30" fill="black"/>
<rect y="30" width="30" height="30" fill="black"/>
<rect y="60" width="30" height="30" fill="black"/>
<rect x="1020" y="90" width="30" height="30" fill="black"/>
<rect x="1050" y="90" width="30" height="30" fill="black"/>
<rect x="1080" y="90" width="30" height="30" fill="black"/>
<rect x="1140" y="90" width="30" height="30" fill="black"/>
<rect x="1170" y="90" width="30" height="30" fill="black"/>
<rect x="1200" y="90" width="30" height="30" fill="black"/>
<rect x="1140" y="60" width="30" height="30" fill="black"/>
<rect x="1140" y="30" width="30" height="30" fill="black"/>
<rect x="1170" y="30" width="30" height="30" fill="black"/>
<rect x="1170" y="30" width="30" height="30" fill="black"/>
<rect x="1200" y="30" width="30" height="30" fill="black"/>
<rect x="1200" y="60" width="30" height="30" fill="black"/>
<rect x="1200" width="30" height="30" fill="black"/>
<rect x="1080" y="60" width="30" height="30" fill="black"/>
<rect x="1080" y="30" width="30" height="30" fill="black"/>
<rect x="1050" y="30" width="30" height="30" fill="black"/>
<rect x="1020" y="30" width="30" height="30" fill="black"/>
<rect x="1020" y="60" width="30" height="30" fill="black"/>
<rect y="90" width="30" height="30" fill="black"/>
<rect x="30" y="90" width="30" height="30" fill="black"/>
<rect x="60" y="90" width="30" height="30" fill="black"/>
<rect x="120" y="90" width="30" height="30" fill="black"/>
<rect x="120" y="120" width="30" height="30" fill="black"/>
<rect x="120" y="60" width="30" height="30" fill="black"/>
<rect x="120" y="30" width="30" height="30" fill="black"/>
<rect x="150" y="30" width="30" height="30" fill="black"/>
<rect x="180" y="30" width="30" height="30" fill="black"/>
<rect x="270" y="90" width="30" height="30" fill="black"/>
<rect x="240" y="90" width="30" height="30" fill="black"/>
<rect x="240" y="60" width="30" height="30" fill="black"/>
<rect x="240" y="30" width="30" height="30" fill="black"/>
<rect x="270" y="30" width="30" height="30" fill="black"/>
<rect x="270" y="75" width="30" height="30" fill="black"/>
<rect x="300" y="30" width="30" height="30" fill="black"/>
<rect x="300" y="45" width="30" height="30" fill="black"/>
<rect x="300" y="90" width="30" height="30" fill="black"/>
<rect x="570" y="90" width="30" height="30" fill="#FFA116"/>
<rect x="540" y="90" width="30" height="30" fill="#FFA116"/>
<rect x="540" y="60" width="30" height="30" fill="#FFA116"/>
<rect x="540" y="30" width="30" height="30" fill="#FFA116"/>
<rect x="570" y="30" width="30" height="30" fill="#FFA116"/>
<rect x="570" y="75" width="30" height="30" fill="#FFA116"/>
<rect x="600" y="30" width="30" height="30" fill="#FFA116"/>
<rect x="600" y="45" width="30" height="30" fill="#FFA116"/>
<rect x="600" y="90" width="30" height="30" fill="#FFA116"/>
<rect x="570" y="90" width="30" height="30" fill="#FFA116"/>
<rect x="540" y="90" width="30" height="30" fill="#FFA116"/>
<rect x="540" y="60" width="30" height="30" fill="#FFA116"/>
<rect x="540" y="30" width="30" height="30" fill="#FFA116"/>
<rect x="570" y="30" width="30" height="30" fill="#FFA116"/>
<rect x="570" y="75" width="30" height="30" fill="#FFA116"/>
<rect x="600" y="30" width="30" height="30" fill="#FFA116"/>
<rect x="600" y="45" width="30" height="30" fill="#FFA116"/>
<rect x="600" y="90" width="30" height="30" fill="#FFA116"/>
<rect x="1290" y="90" width="30" height="30" fill="black"/>
<rect x="1260" y="90" width="30" height="30" fill="black"/>
<rect x="1260" y="60" width="30" height="30" fill="black"/>
<rect x="1260" y="30" width="30" height="30" fill="black"/>
<rect x="1290" y="30" width="30" height="30" fill="black"/>
<rect x="1290" y="75" width="30" height="30" fill="black"/>
<rect x="1320" y="30" width="30" height="30" fill="black"/>
<rect x="1320" y="45" width="30" height="30" fill="black"/>
<rect x="1320" y="90" width="30" height="30" fill="black"/>
<rect x="1290" y="90" width="30" height="30" fill="black"/>
<rect x="1260" y="90" width="30" height="30" fill="black"/>
<rect x="1260" y="60" width="30" height="30" fill="black"/>
<rect x="1260" y="30" width="30" height="30" fill="black"/>
<rect x="1290" y="30" width="30" height="30" fill="black"/>
<rect x="1290" y="75" width="30" height="30" fill="black"/>
<rect x="1320" y="30" width="30" height="30" fill="black"/>
<rect x="1320" y="45" width="30" height="30" fill="black"/>
<rect x="1320" y="90" width="30" height="30" fill="black"/>
<rect x="690" y="90" width="30" height="30" fill="#FFA116"/>
<rect x="660" y="90" width="30" height="30" fill="#FFA116"/>
<rect x="660" y="60" width="30" height="30" fill="#FFA116"/>
<rect x="660" y="30" width="30" height="30" fill="#FFA116"/>
<rect x="690" y="30" width="30" height="30" fill="#FFA116"/>
<rect x="690" y="75" width="30" height="30" fill="#FFA116"/>
<rect x="720" y="30" width="30" height="30" fill="#FFA116"/>
<rect x="720" y="45" width="30" height="30" fill="#FFA116"/>
<rect x="720" y="90" width="30" height="30" fill="#FFA116"/>
<rect x="690" y="90" width="30" height="30" fill="#FFA116"/>
<rect x="660" y="90" width="30" height="30" fill="#FFA116"/>
<rect x="810" y="90" width="30" height="30" fill="#FFA116"/>
<rect x="840" y="90" width="30" height="30" fill="#FFA116"/>
<rect x="810" y="60" width="30" height="30" fill="#FFA116"/>
<rect x="810" y="60" width="30" height="30" fill="#FFA116"/>
<rect x="810" y="90" width="30" height="30" fill="#FFA116"/>
<rect x="840" y="90" width="30" height="30" fill="#FFA116"/>
<rect x="810" y="60" width="30" height="30" fill="#FFA116"/>
<rect x="810" y="60" width="30" height="30" fill="#FFA116"/>
<rect x="810" y="30" width="30" height="30" fill="#FFA116"/>
<rect x="780" y="30" width="30" height="30" fill="#FFA116"/>
<rect x="930" y="30" width="30" height="30" fill="black"/>
<rect x="900" y="30" width="30" height="30" fill="black"/>
<rect x="960" y="30" width="30" height="30" fill="black"/>
<rect x="960" y="90" width="30" height="30" fill="black"/>
<rect x="900" y="60" width="30" height="30" fill="black"/>
<rect x="900" y="90" width="30" height="30" fill="black"/>
<rect x="930" y="90" width="30" height="30" fill="black"/>
<rect x="840" y="30" width="30" height="30" fill="#FFA116"/>
<rect x="810" width="30" height="30" fill="#FFA116"/>
<rect x="660" y="60" width="30" height="30" fill="#FFA116"/>
<rect x="660" y="30" width="30" height="30" fill="#FFA116"/>
<rect x="690" y="30" width="30" height="30" fill="#FFA116"/>
<rect x="690" y="75" width="30" height="30" fill="#FFA116"/>
<rect x="720" y="30" width="30" height="30" fill="#FFA116"/>
<rect x="720" y="45" width="30" height="30" fill="#FFA116"/>
<rect x="720" y="90" width="30" height="30" fill="#FFA116"/>
<rect x="180" y="60" width="30" height="30" fill="black"/>
<rect x="360" y="90" width="30" height="30" fill="black"/>
<rect x="360" y="60" width="30" height="30" fill="black"/>
<rect x="360" y="30" width="30" height="30" fill="black"/>
<rect x="390" y="30" width="30" height="30" fill="black"/>
<rect x="420" y="60" width="30" height="30" fill="black"/>
<rect x="420" y="86" width="30" height="30" fill="black"/>
<rect x="480" y="90" width="30" height="30" fill="#FFA116"/>
<rect x="480" y="60" width="30" height="30" fill="#FFA116"/>
<rect x="480" y="30" width="30" height="30" fill="#FFA116"/>
<rect x="480" width="30" height="30" fill="#FFA116"/>
<rect x="150" y="90" width="30" height="30" fill="black"/>
<rect x="180" y="90" width="30" height="30" fill="black"/>
<rect x="60" y="60" width="30" height="30" fill="black"/>
<rect x="60" y="30" width="30" height="30" fill="black"/>
<rect x="30" y="30" width="30" height="30" fill="black"/>
<rect y="30" width="30" height="30" fill="black"/>
<rect y="60" width="30" height="30" fill="black"/>
<rect x="1020" y="90" width="30" height="30" fill="black"/>
<rect x="1050" y="90" width="30" height="30" fill="black"/>
<rect x="1080" y="90" width="30" height="30" fill="black"/>
<rect x="1140" y="90" width="30" height="30" fill="black"/>
<rect x="1170" y="90" width="30" height="30" fill="black"/>
<rect x="1200" y="90" width="30" height="30" fill="black"/>
<rect x="1140" y="60" width="30" height="30" fill="black"/>
<rect x="1140" y="30" width="30" height="30" fill="black"/>
<rect x="1170" y="30" width="30" height="30" fill="black"/>
<rect x="1170" y="30" width="30" height="30" fill="black"/>
<rect x="1200" y="30" width="30" height="30" fill="black"/>
<rect x="1200" y="60" width="30" height="30" fill="black"/>
<rect x="1200" width="30" height="30" fill="black"/>
<rect x="1080" y="60" width="30" height="30" fill="black"/>
<rect x="1080" y="30" width="30" height="30" fill="black"/>
<rect x="1050" y="30" width="30" height="30" fill="black"/>
<rect x="1020" y="30" width="30" height="30" fill="black"/>
<rect x="1020" y="60" width="30" height="30" fill="black"/>
</svg>
