<svg width="1350" height="150" viewBox="0 0 1350 150" fill="none" xmlns="http://www.w3.org/2000/svg">
  <path d="M1140 90 L1140 120 L1170 120 L1200 120 L1230 120 L1230 90 L1230 60 L1230 30 L1230 0 L1200 0 L1200 30 L1170 30 L1140 30 L1140 60 L1140 90 Z M1170 90 L1170 60 L1200 60 L1200 90 L1170 90 Z M30 30 L0 30 L0 60 L0 90 L0 120 L30 120 L60 120 L90 120 L90 90 L90 60 L90 30 L60 30 L30 30 Z M30 90 L30 60 L60 60 L60 90 L30 90 Z M180 30 L150 30 L120 30 L120 60 L120 90 L120 120 L120 150 L150 150 L150 120 L180 120 L210 120 L210 90 L210 60 L210 30 L180 30 Z M150 60 L180 60 L180 90 L150 90 L150 60 Z M240 120 L270 120 L300 120 L330 120 L330 90 L300 90 L300 75 L330 75 L330 60 L330 45 L330 30 L300 30 L270 30 L240 30 L240 60 L240 90 L240 120 Z M300 75 L270 75 L270 60 L300 60 L300 75 Z M360 90 L360 120 L390 120 L390 90 L390 60 L420 60 L420 30 L390 30 L360 30 L360 60 L360 90 Z M900 90 L900 120 L930 120 L960 120 L990 120 L990 90 L960 90 L930 90 L930 60 L960 60 L990 60 L990 30 L960 30 L930 30 L900 30 L900 60 L900 90 Z M1020 90 L1020 120 L1050 120 L1080 120 L1110 120 L1110 90 L1110 60 L1110 30 L1080 30 L1050 30 L1020 30 L1020 60 L1020 90 Z M1080 90 L1050 90 L1050 60 L1080 60 L1080 90 Z M1320 75 L1350 75 L1350 60 L1350 45 L1350 30 L1320 30 L1290 30 L1260 30 L1260 60 L1260 90 L1260 120 L1290 120 L1320 120 L1350 120 L1350 90 L1320 90 L1320 75 Z M1290 75 L1290 60 L1320 60 L1320 75 L1290 75 Z M420 60 L420 86 L420 90 L420 116 L450 116 L450 90 L450 86 L450 60 L420 60 Z" fill="white"/>
  <path d="M480 120 L510 120 L510 90 L510 60 L510 30 L510 0 L480 0 L480 30 L480 60 L480 90 L480 120 Z M810 60 L810 90 L810 120 L840 120 L870 120 L870 90 L840 90 L840 60 L870 60 L870 30 L840 30 L840 0 L810 0 L810 30 L780 30 L780 60 L810 60 Z M540 120 L570 120 L600 120 L630 120 L630 90 L600 90 L600 75 L630 75 L630 60 L630 45 L630 30 L600 30 L570 30 L540 30 L540 60 L540 90 L540 120 Z M600 75 L570 75 L570 60 L600 60 L600 75 Z M660 90 L660 120 L690 120 L720 120 L750 120 L750 90 L720 90 L720 75 L750 75 L750 60 L750 45 L750 30 L720 30 L690 30 L660 30 L660 60 L660 90 Z M720 75 L690 75 L690 60 L720 60 L720 75 Z" fill="#FFA116"/>
</svg>
