<svg width="1350" height="150" viewBox="0 0 1350 150" fill="none" xmlns="http://www.w3.org/2000/svg">
  <path d="M 30 30 L 0 30 L 0 60 L 0 90 L 0 120 L 30 120 L 60 120 L 90 120 L 90 90 L 90 60 L 90 30 L 60 30 Z M 30 90 L 30 60 L 60 60 L 60 90 Z M 180 30 L 150 30 L 120 30 L 120 60 L 120 90 L 120 120 L 120 150 L 150 150 L 150 120 L 180 120 L 210 120 L 210 90 L 210 60 L 210 30 Z M 150 60 L 180 60 L 180 90 L 150 90 Z M 240 120 L 270 120 L 300 120 L 330 120 L 330 90 L 300 90 L 300 75 L 330 75 L 330 60 L 330 45 L 330 30 L 300 30 L 270 30 L 240 30 L 240 60 L 240 90 Z M 270 75 L 270 60 L 300 60 L 300 75 Z M 900 90 L 900 120 L 930 120 L 960 120 L 990 120 L 990 90 L 960 90 L 930 90 L 930 60 L 960 60 L 990 60 L 990 30 L 960 30 L 930 30 L 900 30 L 900 60 Z M 360 90 L 360 120 L 390 120 L 390 90 L 390 60 L 420 60 L 420 30 L 390 30 L 360 30 L 360 60 Z M 450 90 L 450 86 L 450 60 L 420 60 L 420 86 L 420 90 L 420 116 L 450 116 Z M 1140 90 L 1140 120 L 1170 120 L 1200 120 L 1230 120 L 1230 90 L 1230 60 L 1230 30 L 1230 0 L 1200 0 L 1200 30 L 1170 30 L 1140 30 L 1140 60 Z M 1170 90 L 1170 60 L 1200 60 L 1200 90 Z M 1020 90 L 1020 120 L 1050 120 L 1080 120 L 1110 120 L 1110 90 L 1110 60 L 1110 30 L 1080 30 L 1050 30 L 1020 30 L 1020 60 Z M 1080 90 L 1050 90 L 1050 60 L 1080 60 Z M 1290 120 L 1320 120 L 1350 120 L 1350 90 L 1320 90 L 1320 75 L 1350 75 L 1350 60 L 1350 45 L 1350 30 L 1320 30 L 1290 30 L 1260 30 L 1260 60 L 1260 90 L 1260 120 Z M 1290 75 L 1290 60 L 1320 60 L 1320 75 Z" fill="black"/>
  <path d="M 480 120 L 510 120 L 510 90 L 510 60 L 510 30 L 510 0 L 480 0 L 480 30 L 480 60 L 480 90 Z M 540 120 L 570 120 L 600 120 L 630 120 L 630 90 L 600 90 L 600 75 L 630 75 L 630 60 L 630 45 L 630 30 L 600 30 L 570 30 L 540 30 L 540 60 L 540 90 Z M 570 75 L 570 60 L 600 60 L 600 75 Z M 660 90 L 660 120 L 690 120 L 720 120 L 750 120 L 750 90 L 720 90 L 720 75 L 750 75 L 750 60 L 750 45 L 750 30 L 720 30 L 690 30 L 660 30 L 660 60 Z M 690 75 L 690 60 L 720 60 L 720 75 Z M 810 60 L 810 90 L 810 120 L 840 120 L 870 120 L 870 90 L 840 90 L 840 60 L 870 60 L 870 30 L 840 30 L 840 0 L 810 0 L 810 30 L 780 30 L 780 60 Z" fill="#FFA116"/>
</svg>
